<svg width="320" height="72" viewBox="0 0 320 72" fill="none" xmlns="http://www.w3.org/2000/svg">
<path d="M133.172 54H105.976V47.864L124.748 23.788H106.912V17.704H132.652V23.84L113.828 47.916H133.172V54ZM152.295 54.624C150.284 54.624 148.482 54.2947 146.887 53.636C145.327 52.9427 143.992 51.9893 142.883 50.776C141.808 49.528 140.976 48.0373 140.387 46.304C139.798 44.536 139.503 42.56 139.503 40.376C139.503 38.2267 139.78 36.2853 140.335 34.552C140.924 32.8187 141.756 31.3453 142.831 30.132C143.906 28.884 145.223 27.9307 146.783 27.272C148.343 26.5787 150.111 26.232 152.087 26.232C154.202 26.232 156.039 26.596 157.599 27.324C159.159 28.052 160.442 29.04 161.447 30.288C162.452 31.536 163.198 32.992 163.683 34.656C164.203 36.2853 164.463 38.036 164.463 39.908V42.092H146.419V42.768C146.419 44.744 146.974 46.3387 148.083 47.552C149.192 48.7307 150.839 49.32 153.023 49.32C154.687 49.32 156.039 48.9733 157.079 48.28C158.154 47.5867 159.107 46.7027 159.939 45.628L163.527 49.632C162.418 51.192 160.892 52.4227 158.951 53.324C157.044 54.1907 154.826 54.624 152.295 54.624ZM152.191 31.224C150.423 31.224 149.019 31.8133 147.979 32.992C146.939 34.1707 146.419 35.696 146.419 37.568V37.984H157.547V37.516C157.547 35.644 157.079 34.136 156.143 32.992C155.242 31.8133 153.924 31.224 152.191 31.224ZM181.811 54.624C179.211 54.624 177.027 54.1907 175.259 53.324C173.491 52.4227 171.931 51.192 170.579 49.632L174.635 45.68C175.64 46.824 176.732 47.7253 177.911 48.384C179.124 49.0427 180.511 49.372 182.071 49.372C183.666 49.372 184.81 49.0947 185.503 48.54C186.231 47.9853 186.595 47.2227 186.595 46.252C186.595 45.4547 186.335 44.8307 185.815 44.38C185.33 43.8947 184.48 43.5653 183.267 43.392L180.563 43.028C177.616 42.6467 175.363 41.8147 173.803 40.532C172.278 39.2147 171.515 37.308 171.515 34.812C171.515 33.4947 171.758 32.316 172.243 31.276C172.728 30.2013 173.422 29.3 174.323 28.572C175.224 27.8093 176.299 27.2373 177.547 26.856C178.83 26.44 180.251 26.232 181.811 26.232C183.128 26.232 184.29 26.336 185.295 26.544C186.335 26.7173 187.271 26.9947 188.103 27.376C188.935 27.7227 189.698 28.1733 190.391 28.728C191.084 29.248 191.76 29.8373 192.419 30.496L188.519 34.396C187.722 33.564 186.768 32.8707 185.659 32.316C184.55 31.7613 183.336 31.484 182.019 31.484C180.563 31.484 179.506 31.744 178.847 32.264C178.223 32.784 177.911 33.46 177.911 34.292C177.911 35.1933 178.171 35.8867 178.691 36.372C179.246 36.8227 180.164 37.152 181.447 37.36L184.203 37.724C190.062 38.556 192.991 41.2253 192.991 45.732C192.991 47.0493 192.714 48.2627 192.159 49.372C191.639 50.4467 190.894 51.3827 189.923 52.18C188.952 52.9427 187.774 53.5493 186.387 54C185.035 54.416 183.51 54.624 181.811 54.624ZM209.538 54C207.25 54 205.499 53.4107 204.286 52.232C203.107 51.0187 202.518 49.3027 202.518 47.084V32.16H198.514V26.856H200.594C201.599 26.856 202.275 26.6307 202.622 26.18C203.003 25.6947 203.194 24.984 203.194 24.048V19.42H209.174V26.856H214.738V32.16H209.174V48.696H214.322V54H209.538Z" fill="url(#paint0_linear_883_6534)"/>
<path d="M222.019 54V48.488H226.803V23.216H222.019V17.704H238.503V23.216H233.667V48.488H238.503V54H222.019ZM248.116 17.704H261.324C263.681 17.704 265.813 18.0853 267.72 18.848C269.661 19.6107 271.308 20.7547 272.66 22.28C274.046 23.7707 275.104 25.66 275.832 27.948C276.594 30.2013 276.976 32.836 276.976 35.852C276.976 38.868 276.594 41.52 275.832 43.808C275.104 46.0613 274.046 47.9507 272.66 49.476C271.308 50.9667 269.661 52.0933 267.72 52.856C265.813 53.6187 263.681 54 261.324 54H248.116V17.704ZM261.324 47.916C263.889 47.916 265.917 47.1707 267.408 45.68C268.933 44.1547 269.696 41.832 269.696 38.712V32.992C269.696 29.872 268.933 27.5667 267.408 26.076C265.917 24.5507 263.889 23.788 261.324 23.788H254.98V47.916H261.324Z" fill="url(#paint1_linear_883_6534)"/>
<rect x="15" y="4" width="65" height="65" rx="12" fill="url(#paint2_linear_883_6534)" stroke="url(#paint3_linear_883_6534)" stroke-width="6"/>
<rect x="26" y="15" width="43" height="43" rx="21.5" stroke="url(#paint4_linear_883_6534)" stroke-width="6"/>
<rect x="26" y="15" width="43" height="43" rx="21.5" stroke="url(#paint5_linear_883_6534)" stroke-width="6"/>
<path d="M37.757 49H18.406V44.634L31.763 27.503H19.072V23.174H37.387V27.54L23.993 44.671H37.757V49Z" fill="white"/>
<path d="M40.961 49V45.078H44.365V27.096H40.961V23.174H52.69V27.096H49.249V45.078H52.69V49H40.961Z" fill="white"/>
<path d="M57.034 23.174H66.432C68.1093 23.174 69.6263 23.4453 70.983 23.988C72.3643 24.5307 73.536 25.3447 74.498 26.43C75.4847 27.4907 76.237 28.835 76.755 30.463C77.2977 32.0663 77.569 33.941 77.569 36.087C77.569 38.233 77.2977 40.12 76.755 41.748C76.237 43.3513 75.4847 44.6957 74.498 45.781C73.536 46.8417 72.3643 47.6433 70.983 48.186C69.6263 48.7287 68.1093 49 66.432 49H57.034V23.174ZM66.432 44.671C68.2573 44.671 69.7003 44.1407 70.761 43.08C71.8463 41.9947 72.389 40.342 72.389 38.122V34.052C72.389 31.832 71.8463 30.1917 70.761 29.131C69.7003 28.0457 68.2573 27.503 66.432 27.503H61.918V44.671H66.432Z" fill="white"/>
<defs>
<linearGradient id="paint0_linear_883_6534" x1="280" y1="-7.50391" x2="226.58" y2="112.749" gradientUnits="userSpaceOnUse">
<stop offset="0.0292024" stop-color="#407AD8"/>
<stop offset="1" stop-color="#2AB8D8"/>
</linearGradient>
<linearGradient id="paint1_linear_883_6534" x1="280" y1="-7.50391" x2="226.58" y2="112.749" gradientUnits="userSpaceOnUse">
<stop offset="0.0292024" stop-color="#28B6E5"/>
<stop offset="1" stop-color="#2AB8D8"/>
</linearGradient>
<linearGradient id="paint2_linear_883_6534" x1="77" y1="0.489254" x2="15.14" y2="54.2908" gradientUnits="userSpaceOnUse">
<stop offset="0.0292024" stop-color="#407AD8"/>
<stop offset="1" stop-color="#2AB8D8"/>
</linearGradient>
<linearGradient id="paint3_linear_883_6534" x1="77" y1="0.489254" x2="15.14" y2="54.2908" gradientUnits="userSpaceOnUse">
<stop offset="0.0292024" stop-color="#407AD8"/>
<stop offset="1" stop-color="#2AB8D8"/>
</linearGradient>
<linearGradient id="paint4_linear_883_6534" x1="75" y1="75" x2="44.1746" y2="5.49964" gradientUnits="userSpaceOnUse">
<stop stop-color="#CCCCCC"/>
<stop offset="1" stop-color="#22C3E8"/>
</linearGradient>
<linearGradient id="paint5_linear_883_6534" x1="75" y1="75" x2="44.1746" y2="5.49964" gradientUnits="userSpaceOnUse">
<stop stop-color="#CCCCCC"/>
<stop offset="1" stop-color="#22C3E8"/>
</linearGradient>
</defs>
</svg>
